<?xml version="1.0" encoding="utf-8"?>
<!-- Generator: Adobe Illustrator 16.0.0, SVG Export Plug-In . SVG Version: 6.00 Build 0)  -->
<!DOCTYPE svg PUBLIC "-//W3C//DTD SVG 1.1//EN" "http://www.w3.org/Graphics/SVG/1.1/DTD/svg11.dtd">
<svg version="1.1" id="Layer_1" xmlns="http://www.w3.org/2000/svg" xmlns:xlink="http://www.w3.org/1999/xlink" x="0px" y="0px"
	 width="150px" height="75px" viewBox="0 0 150 75" enable-background="new 0 0 150 75" xml:space="preserve">
<g>
	<g>
		<path fill="#FA8A3B" d="M96.702,18.874c-0.921,0.125-1.569,0.992-1.443,1.93c0.124,0.942,0.966,1.601,1.888,1.478
			c1.463-0.201,2.914,0.193,4.088,1.109c1.171,0.916,1.926,2.244,2.119,3.742c0.125,0.938,0.969,1.6,1.89,1.474
			c0.915-0.126,1.563-0.989,1.438-1.931c-0.313-2.408-1.525-4.543-3.414-6.016C101.383,19.183,99.054,18.553,96.702,18.874"/>
		<path fill="#FA8A3B" d="M97.407,11.303c-0.921,0.127-1.561,0.993-1.441,1.932c0.125,0.941,0.97,1.603,1.886,1.474
			c6.077-0.833,11.679,3.545,12.497,9.762c0.124,0.94,0.968,1.598,1.888,1.474c0.913-0.128,1.562-0.991,1.438-1.929
			C112.614,15.92,105.314,10.219,97.407,11.303"/>
	</g>
	<g>
		<path fill="#255AA8" d="M101.882,63.829c-4.946,0-8.246-3.887-8.246-8.284V30.686c0-0.717,0.396-1.125,1.102-1.125h1.645
			c0.7,0,1.102,0.408,1.102,1.125v24.859c0,2.305,1.603,4.654,4.398,4.654c1.499,0,2.352-0.666,3.051-1.279
			c0.699-0.611,1.199-0.665,1.85-0.203l0.999,0.715c0.549,0.411,0.598,1.128,0.197,1.585
			C106.731,62.553,104.681,63.829,101.882,63.829"/>
		<path fill="#255AA8" d="M59.505,31.994c-1.25-1.535-3.298-2.814-6.098-2.814c-2.406,0-4.422,0.926-5.856,2.376
			c-1.517,1.534-2.393,3.653-2.393,5.912v1.705c-0.169,0.332-0.495,0.517-0.963,0.517h-1.099c-0.701,0-1.099,0.405-1.099,1.125
			v1.125c0,0.717,0.398,1.123,1.099,1.123h1.099c0.468,0,0.794,0.186,0.963,0.518v18.747c0,0.714,0.398,1.125,1.104,1.125h1.647
			c0.382,0,0.667-0.127,0.855-0.353c0.246-0.188,0.379-0.495,0.379-0.904V44.189c0-0.717,0.402-1.127,1.1-1.127h4.183
			c0.699,0,1.099-0.406,1.099-1.123v-1.125c0-0.72-0.4-1.125-1.099-1.125h-4.183c-0.698,0-1.1-0.411-1.1-1.125v-1.231
			c0-1.257,0.484-2.528,1.375-3.424c0.725-0.667,1.695-1.1,2.889-1.1c1.5,0,2.348,0.667,3.048,1.28
			c0.701,0.615,1.201,0.667,1.851,0.206l0.106-0.077l0.894-0.641C59.855,33.168,59.906,32.458,59.505,31.994"/>
		<path fill="#255AA8" d="M84.193,31.994c-1.248-1.535-3.299-2.814-6.1-2.814c-2.405,0-4.417,0.926-5.856,2.376
			c-1.515,1.534-2.388,3.653-2.388,5.912v1.705c-0.173,0.332-0.501,0.517-0.967,0.517h-1.101c-0.699,0-1.099,0.405-1.099,1.125
			v1.125c0,0.717,0.4,1.123,1.099,1.123h1.101c0.466,0,0.793,0.186,0.967,0.518v18.747c0,0.714,0.396,1.125,1.099,1.125h1.647
			c0.381,0,0.668-0.127,0.856-0.353c0.244-0.188,0.379-0.495,0.379-0.904V44.189c0-0.717,0.4-1.127,1.097-1.127h3.692
			c0.697,0,1.098-0.406,1.098-1.123v-1.125c0-0.72-0.4-1.125-1.098-1.125h-3.692c-0.697,0-1.097-0.411-1.097-1.125v-1.231
			c0-1.257,0.483-2.528,1.373-3.424c0.725-0.667,1.698-1.1,2.889-1.1c1.498,0,2.352,0.667,3.051,1.28
			c0.697,0.615,1.201,0.667,1.852,0.206l0.105-0.077l0.889-0.641C84.545,33.168,84.594,32.458,84.193,31.994"/>
		<path fill="#255AA8" d="M26.291,39.165c-0.156-0.005-0.306-0.02-0.46-0.02l0,0c-2.199,0-4.046,0.561-5.647,1.483
			c-0.336,0.188-0.665,0.574-0.674,1.031c-0.002,0.161,0.032,0.33,0.123,0.502l0.651,1.179c0.351,0.614,0.751,0.868,1.401,0.511
			c0.99-0.555,2.383-1.068,4.118-1.073c0.014,0,0.02-0.003,0.029-0.003c2.802,0,4.398,2.354,4.398,4.654v1.229
			c0,0.716-0.398,1.125-1.097,1.125h-9.334h-0.014c-1.402,0-2.199,0.819-2.199,2.247v3.474c0,0.002,0,0.004,0,0.009
			c0,4.122,2.899,7.798,7.339,8.242c0.043,0.003,0.091,0,0.135,0.006c0.251,0.021,0.508,0.037,0.772,0.037l0,0h0.002
			c0.288,0,0.57-0.016,0.848-0.043c0.054-0.002,0.11-0.012,0.164-0.019c0.248-0.024,0.489-0.062,0.723-0.107
			c0.021-0.003,0.043-0.008,0.063-0.013c1.096-0.226,1.948-0.619,2.55-0.993c0.2-0.156,0.5-0.156,0.701,0.203
			c0.148,0.254,0.4,0.462,0.797,0.462h1.303c0.699,0,1.1-0.408,1.1-1.124V47.43C34.079,43.172,30.979,39.403,26.291,39.165
			 M29.935,57.188c-0.011,0.024-0.018,0.057-0.025,0.083c-0.018,0.044-0.037,0.091-0.056,0.135
			c-0.444,1.138-1.301,2.104-2.521,2.554c-0.459,0.169-0.968,0.27-1.534,0.27c-2.795,0-4.397-2.355-4.397-4.655V55.55
			c0.005-0.762,0.183-1.519,0.52-2.201c0.159-0.081,0.354-0.13,0.581-0.13H29.1c0.229,0,0.422,0.049,0.582,0.13
			c0.335,0.69,0.519,1.458,0.519,2.226C30.201,56.118,30.109,56.668,29.935,57.188"/>
		<path fill="#255AA8" d="M123.71,63.777c0.154,0.005,0.304,0.021,0.457,0.021h0.003c2.201,0,4.051-0.562,5.647-1.482
			c0.333-0.191,0.665-0.575,0.675-1.033c0-0.161-0.033-0.329-0.125-0.504l-0.65-1.173c-0.347-0.614-0.747-0.87-1.4-0.514
			c-0.994,0.56-2.381,1.068-4.121,1.073c-0.007,0-0.018,0-0.025,0c-2.8,0-4.401-2.353-4.401-4.654v-1.228
			c0-0.714,0.402-1.126,1.1-1.126h9.334h0.018c1.397,0,2.196-0.816,2.196-2.247v-3.471v-0.01c0-4.123-2.899-7.795-7.34-8.24
			c-0.044-0.002-0.092,0-0.133-0.007c-0.253-0.022-0.514-0.037-0.773-0.037h-0.003l0,0c-0.29,0-0.569,0.015-0.849,0.044
			c-0.055,0-0.107,0.01-0.165,0.021c-0.246,0.021-0.485,0.059-0.719,0.104c-0.022,0.006-0.044,0.007-0.065,0.01
			c-1.094,0.225-1.948,0.617-2.545,0.996c-0.203,0.154-0.505,0.154-0.703-0.206c-0.15-0.254-0.402-0.458-0.801-0.458h-1.301
			c-0.698,0-1.097,0.407-1.097,1.126v14.729C115.923,59.773,119.021,63.54,123.71,63.777 M120.065,45.755
			c0.009-0.027,0.016-0.057,0.026-0.083c0.016-0.047,0.04-0.092,0.055-0.136c0.441-1.136,1.303-2.107,2.519-2.552
			c0.465-0.17,0.974-0.268,1.53-0.268c2.802,0,4.401,2.354,4.401,4.652v0.024c-0.005,0.759-0.185,1.517-0.521,2.2
			c-0.158,0.081-0.349,0.131-0.576,0.131h-6.601c-0.227,0-0.42-0.05-0.58-0.131c-0.339-0.687-0.521-1.457-0.521-2.225
			C119.797,46.824,119.894,46.276,120.065,45.755"/>
	</g>
</g>
</svg>
